<?xml version="1.0" encoding="UTF-8" standalone="no"?>
<svg
   version="1.1"
   width="674.65375"
   height="123"
   id="svg54"
   sodipodi:docname="product_logo.svg"
   inkscape:export-filename="product_logo.svg"
   inkscape:export-xdpi="96"
   inkscape:export-ydpi="96"
   xmlns:inkscape="http://www.inkscape.org/namespaces/inkscape"
   xmlns:sodipodi="http://sodipodi.sourceforge.net/DTD/sodipodi-0.dtd"
   xmlns="http://www.w3.org/2000/svg"
   xmlns:svg="http://www.w3.org/2000/svg">
  <defs
     id="defs54" />
  <sodipodi:namedview
     id="namedview54"
     pagecolor="#ffffff"
     bordercolor="#000000"
     borderopacity="0.25"
     inkscape:showpageshadow="2"
     inkscape:pageopacity="0.0"
     inkscape:pagecheckerboard="0"
     inkscape:deskcolor="#d1d1d1" />
  <path
     d="m 0,0 c 79.86,0 159.72,0 242,0 0,40.59 0,81.18 0,123 -79.86,0 -159.72,0 -242,0 C 0,82.41 0,41.82 0,0 Z"
     fill="#F2FDFE"
     id="path1"
     style="fill:#f2fdfe;fill-opacity:0" />
  <g
     id="g1"
     transform="translate(-56.292392,8.0551702)">
    <path
       d="m 119.625,14.625 c 1.19182,-0.0019 1.19182,-0.0019 2.40771,-0.0039 6.54875,0.117007 12.06263,1.465589 17.96729,4.3789 0,0.66 0,1.32 0,2 1.02094,0.278437 1.02094,0.278437 2.0625,0.5625 C 149.78181,25.340035 155.09292,33.052421 158,41 c -0.34375,2.835937 -0.34375,2.835937 -1,5 0.66,0.33 1.32,0.66 2,1 0.97666,11.937008 -0.73762,19.775702 -7,30 -0.66,0 -1.32,0 -2,0 -0.2475,0.592969 -0.495,1.185938 -0.75,1.796875 -1.43969,2.537451 -2.90152,3.743566 -5.25,5.453125 -1.05188,0.781172 -1.05188,0.781172 -2.125,1.578125 C 140,87 140,87 138,87 c 0,0.66 0,1.32 0,2 -4.455,0.495 -4.455,0.495 -9,1 0,0.66 0,1.32 0,2 -2.72977,0.08126 -5.4571,0.140617 -8.1875,0.1875 -0.76893,0.02514 -1.53785,0.05027 -2.33008,0.07617 C 113.69202,92.325351 111.01989,91.83463 107,89 106.00227,88.750566 106.00227,88.750566 104.98438,88.496094 102.35488,87.83872 100.49715,86.564273 98.25,85.0625 97.450781,84.537852 96.651563,84.013203 95.828125,83.472656 95.224844,82.98668 94.621563,82.500703 94,82 c 0,-0.66 0,-1.32 0,-2 -0.99,0 -1.98,0 -3,0 C 90.184328,78.564297 89.372579,77.126366 88.5625,75.6875 88.110039,74.886992 87.657578,74.086484 87.191406,73.261719 86,71 86,71 85,68 c 1.32,-0.66 2.64,-1.32 4,-2 -1.65,0 -3.3,0 -5,0 -2.69542,-3.984066 -2.33128,-8.18892 -2.3125,-12.8125 -0.01611,-0.781816 -0.03223,-1.563633 -0.04883,-2.369141 -0.0045,-5.35215 0.943536,-9.04019 3.361328,-13.818359 0.66,0 1.32,0 2,0 0.04125,-0.66 0.0825,-1.32 0.125,-2 C 89.593762,26.535665 95.668179,22.556862 103.09765,18.445312 104.05543,17.968359 105.0132,17.491406 106,17 c 1.15435,-0.580078 1.15435,-0.580078 2.33203,-1.171875 3.77909,-1.173012 7.35557,-1.209694 11.29297,-1.203125 z"
       fill="#E9F6FA"
       id="path2"
       style="fill:#e9f6fa;fill-opacity:0" />
    <path
       id="path3"
       d="M 119.97266,41.632812 C 117.9215,41.646436 115.10156,41.790737 111,42 v 25 h 6 v -8 l 1.8125,0.125 c 2.53851,0.752398 2.53851,0.752402 3.9375,3.9375 L 124,66 h 7 c -1.20202,-1.92993 -2.28441,-3.879635 -3.30859,-5.910156 C 126.69007,57.871192 126.69007,57.871187 128.25,55.375 130,53.000002 130,52.999997 130.5625,50 130,47.000003 130,46.999997 127.8125,44.125 c -2.53515,-1.921315 -3.32729,-2.52216 -7.83984,-2.492188 z M 117,48 h 6 c 0.5625,1.937498 0.5625,1.937502 1,4 -1,0.999999 -1,1 -4.0625,1.0625 L 117,53 Z"
       style="fill:#173c6e;fill-opacity:1" />
    <path
       d="m 82,53 c 2.64,0 5.28,0 8,0 0,2.31 0,4.62 0,7 3.465,-0.495 3.465,-0.495 7,-1 0.33,1.32 0.66,2.64 1,4 -1.65,0.66 -3.3,1.32 -5,2 0.66,1.65 1.32,3.3 2,5 2.31,-0.66 4.62,-1.32 7,-2 0.66,1.32 1.32,2.64 2,4 -0.9075,0.598125 -1.815,1.19625 -2.75,1.8125 C 98.770985,75.481068 96.366821,77.179369 94,79 c -4.449072,-1.483024 -6.745794,-5.082855 -9,-9 0,-0.66 0,-1.32 0,-2 1.32,-0.66 2.64,-1.32 4,-2 -1.65,0 -3.3,0 -5,0 -1.784098,-3.062467 -2.2288,-5.220793 -2.125,-8.75 0.01805,-0.799219 0.03609,-1.598438 0.05469,-2.421875 C 81.952891,54.224844 81.976094,53.621563 82,53 Z"
       fill="#3fa9e0"
       id="path4" />
    <path
       id="path5"
       d="m 410.92778,29.640247 c -3.33204,0.0246 -7.68193,0.319559 -14.0075,0.748411 v 42.893776 c 12.75115,0.864481 20.03897,1.477976 31.45544,-4.468102 5.71916,-6.970239 5.71916,-6.970239 7.50641,-16.978786 -1.78725,-10.008548 -1.78725,-10.008548 -7.50641,-16.978786 -7.70937,-4.015287 -10.11748,-5.27033 -17.44794,-5.216513 z m -2.56917,12.186751 14.29793,2.859585 c 1.09291,4.735873 2.0416,9.506891 2.85959,14.297926 -0.21819,0.218186 -0.39714,0.389132 -0.58644,0.575262 0.0524,0.299885 0.11066,0.599169 0.16184,0.899225 -2.85958,2.859557 -2.85958,2.859585 -10.18726,3.03831 l -6.97024,-0.178725 V 43.301486 l 0.42458,0.08376 z"
       style="fill:#375883;fill-opacity:1;stroke-width:2.85959" />
    <path
       id="path6"
       d="m 363.98077,30.51711 c -6.91997,-0.06351 -7.68514,0.385386 -13.7841,3.982201 -6.67563,10.948036 -6.08548,17.467518 -4.4681,30.204367 5.86624,6.952567 9.54384,8.238723 18.40858,9.829825 10.25016,-1.750038 14.69264,-4.964098 21.62561,-12.68941 1.39328,-9.927192 1.98161,-16.520137 -3.03831,-25.378817 -5.54044,-3.217034 -5.54044,-3.217034 -15.37026,-5.897894 -1.27341,-0.02288 -2.38487,-0.04118 -3.37342,-0.05032 z m -3.95427,11.309888 c 7.50641,1.072344 7.50641,1.072344 14.29792,2.859585 1.78725,5.361722 1.78725,5.361722 2.85959,11.438341 -5.71917,5.719169 -5.71917,5.719169 -13.22558,6.076617 l -6.79152,-0.357448 c -1.78723,-6.791514 -1.78723,-6.791514 -2.85958,-14.297925 z"
       style="fill:#2c4e7c;fill-opacity:1;stroke-width:2.85959" />
    <path
       d="m 180.99596,30.388658 c 21.11692,-1.055845 21.11692,-1.055845 30.02564,4.289377 1.41549,1.415495 2.83099,2.830989 4.28938,4.289378 -0.53082,3.538737 -1.06162,7.077473 -1.60852,10.723444 -1.09982,8.615358 -1.50117,15.299095 1.60852,23.591577 -3.77465,0 -7.54931,0 -11.43834,0 -0.94366,-3.774652 -1.88733,-7.549305 -2.85958,-11.438341 -1.88733,0 -3.77466,0 -5.71917,0 0,3.774653 0,7.549305 0,11.438341 -4.71832,0 -9.43664,0 -14.29793,0 0,-14.154946 0,-28.309892 0,-42.893776 z"
       fill="#6681a2"
       id="path7"
       style="stroke-width:2.85959" />
    <path
       id="path8"
       style="fill:#31537f;fill-opacity:1;stroke-width:2.85959"
       d="m 712.96199,29.818971 c -3.35175,0.02002 -7.9389,0.241635 -14.61068,0.569687 v 42.893776 l 10.90217,0.357448 c 9.94601,0.326108 11.72036,-0.187875 20.55327,-6.076619 l 1.13938,-6.512246 -0.0669,-7.606955 c 0.0732,-8.274838 0.0938,-12.808452 -4.68034,-19.637313 -4.46716,-3.071796 -5.86289,-4.028984 -13.23677,-3.987778 z m -7.44495,6.847363 c 6.12554,0.839688 6.12174,0.841233 12.37105,1.697878 0.94592,2.8094 1.76625,5.641705 2.47422,8.483818 -0.1873,0.128394 -0.33986,0.225335 -0.50268,0.335114 0.0455,0.178724 0.0952,0.357448 0.13955,0.536172 -2.47498,1.696334 -2.47677,1.697964 -8.81891,1.803998 -2.98623,-0.05261 -2.98544,-0.05261 -6.03195,-0.106091 V 37.543226 l 0.36862,0.05032 z m 6.57369,17.4982 c 7.68605,0.106091 7.68491,0.107522 10.68435,1.803999 -0.0535,0.176722 -0.10752,0.353902 -0.16184,0.530595 0.19759,0.109809 0.38135,0.212182 0.6088,0.340692 -0.85799,2.842113 -1.85287,5.674418 -2.99922,8.483817 l -14.99607,1.697879 v -0.927135 c -0.20846,0.02288 -0.22561,0.02574 -0.44681,0.05032 v -11.87399 c 3.69208,-0.05347 3.69191,-0.05347 7.31094,-0.10609 z" />
    <path
       d="m 303.11563,30.388658 c 20.76988,-1.021473 20.76988,-1.021473 28.77458,2.859584 3.74224,7.983505 2.02009,14.575735 0.56968,23.044225 -0.85139,6.315393 -0.12411,11.02899 2.11117,16.989967 -9.34952,-1.611977 -13.79966,-4.288291 -20.01709,-11.438341 0,3.774653 0,7.549305 0,11.438341 -3.77466,0 -7.5493,0 -11.43834,0 0,-14.154946 0,-28.309892 0,-42.893776 z"
       fill="#557397"
       id="path9"
       style="stroke-width:2.85959" />
    <path
       d="m 604.54667,30.388658 c 3.77465,0 7.5493,0 11.43834,0 0,5.661978 0,11.323957 0,17.15751 4.71831,0 9.43663,0 14.29792,0 0,-5.661979 0,-11.323956 0,-17.15751 3.77466,0 7.5493,0 11.43834,0 0,14.154946 0,28.309892 0,42.893776 -3.77465,0 -7.5493,0 -11.43834,0 0,-5.661979 0,-11.323957 0,-17.15751 -4.71831,0 -9.43663,0 -14.29792,0 0,5.661978 0,11.323956 0,17.15751 -3.77465,0 -7.54931,0 -11.43834,0 0,-14.154946 0,-28.309892 0,-42.893776 z"
       fill="#2f517e"
       id="path10"
       style="stroke-width:2.85959" />
    <path
       d="m 85,38 c 2.97,0.495 2.97,0.495 6,1 1.03268,2.788237 1.045093,3.867727 0.0625,6.75 C 90.711875,46.4925 90.36125,47.235 90,48 c 2.31,0 4.62,0 7,0 0,1.65 0,3.3 0,5 -1.32,0 -2.64,0 -4,0 0,-0.66 0,-1.32 0,-2 -3.63,0 -7.26,0 -11,0 -0.315632,-5.26053 0.334091,-8.445738 3,-13 z"
       fill="#214575"
       id="path11" />
    <path
       d="m 139,68 c 0.99,0.33 1.98,0.66 3,1 0.33,0.99 0.66,1.98 1,3 1.40106,1.428571 1.40106,1.428571 3.0625,2.6875 0.96938,0.763125 1.93875,1.52625 2.9375,2.3125 -0.34486,2.884245 -0.78255,3.820782 -3.06641,5.703125 -0.82371,0.510469 -1.64742,1.020938 -2.49609,1.546875 -0.82629,0.520781 -1.65258,1.041563 -2.50391,1.578125 C 140.29551,86.214844 139.65742,86.601562 139,87 c -3,-4.625 -3,-4.625 -3,-8 0.99,-0.66 1.98,-1.32 3,-2 -0.165,-0.5775 -0.33,-1.155 -0.5,-1.75 C 138,73 138,73 138,69 c 0.33,-0.33 0.66,-0.66 1,-1 z"
       fill="#1b3f71"
       id="path12" />
    <path
       d="m 152,32 c 2.98771,2.56089 4.54474,5.361839 6,9 -0.3125,2.875 -0.3125,2.875 -1,5 -2.31,0 -4.62,0 -7,0 -0.33,-1.98 -0.66,-3.96 -1,-6 -2.31,0.66 -4.62,1.32 -7,2 -0.66,-1.32 -1.32,-2.64 -2,-4 0.61488,-0.265547 1.22977,-0.531094 1.86328,-0.804688 0.80824,-0.353203 1.61649,-0.706406 2.44922,-1.070312 0.80051,-0.348047 1.60102,-0.696094 2.42578,-1.054688 C 149.19618,33.974281 149.19618,33.974281 152,32 Z"
       fill="#173c6f"
       id="path13" />
    <path
       d="m 126,15 c 9.10714,1.875 9.10714,1.875 13,4 -0.3125,2.375 -0.3125,2.375 -1,5 -0.99,0.66 -1.98,1.32 -3,2 -3.1875,-0.875 -3.1875,-0.875 -6,-2 -0.33,1.98 -0.66,3.96 -1,6 -1.65,-0.33 -3.3,-0.66 -5,-1 0,-0.99 0,-1.98 0,-3 0.66,0 1.32,0 2,0 0.33,-3.63 0.66,-7.26 1,-11 z"
       fill="#36a6e1"
       id="path14" />
    <path
       d="m 445.25239,30.388658 c 3.77466,0 7.5493,0 11.43834,0 0,10.380293 0,20.760588 0,31.455435 3.77466,0 7.5493,0 11.43834,0 0,-10.380293 0,-20.760587 0,-31.455435 3.77466,0 7.54931,0 11.43834,0 0.30904,5.536957 0.5308,11.078833 0.7149,16.621338 0.13269,3.08535 0.26536,6.17067 0.40212,9.349499 -1.11702,8.344183 -1.11702,8.344183 -6.42289,13.672391 -7.57218,4.013686 -11.97426,4.551487 -20.4304,3.250548 -4.69148,-3.250548 -4.69148,-3.250548 -8.57875,-8.578756 -0.83777,-8.344183 -0.83777,-8.344183 -0.53617,-17.693682 0.0775,-3.107454 0.1547,-6.214907 0.23449,-9.416528 0.0995,-2.377573 0.19902,-4.755175 0.3016,-7.20481 z"
       fill="#2d4f7d"
       id="path15"
       style="stroke-width:2.85959" />
    <path
       d="m 652.87878,30.388658 c 3.77466,0 7.5493,0 11.43834,0 0,10.380293 0,20.760588 0,31.455435 3.77466,0 7.5493,0 11.43834,0 0,-10.380293 0,-20.760587 0,-31.455435 3.77466,0 7.54931,0 11.43834,0 0.30904,5.536957 0.5308,11.078833 0.7149,16.621338 0.13269,3.08535 0.26537,6.17067 0.40212,9.349499 -1.11702,8.344183 -1.11702,8.344183 -6.42289,13.672391 -7.57218,4.013686 -11.97426,4.551487 -20.4304,3.250548 -4.69152,-3.250548 -4.69152,-3.250548 -8.57875,-8.578756 -0.83777,-8.344183 -0.83777,-8.344183 -0.53617,-17.693682 0.0775,-3.107454 0.15471,-6.214907 0.23449,-9.416528 0.0995,-2.377573 0.19902,-4.755175 0.3016,-7.20481 z"
       fill="#365783"
       id="path16"
       style="stroke-width:2.85959" />
    <path
       d="m 108,75 c 1.32,0.33 2.64,0.66 4,1 0,0.99 0,1.98 0,3 -1,1 -2,2 -3,3 -1.04623,1.97621 -2.0544,3.973713 -3,6 -4.51478,-0.531151 -7.346669,-2.366203 -11,-5 0.398036,-2.885758 0.790091,-3.821895 3.0625,-5.75 0.639375,-0.4125 1.27875,-0.825 1.9375,-1.25 1.98,0.99 3.96,1.98 6,3 0.66,-1.32 1.32,-2.64 2,-4 z"
       fill="#193d6f"
       id="path17" />
    <path
       d="m 129,75 c 1.32,0 2.64,0 4,0 0.50693,1.581129 1.00526,3.165014 1.5,4.75 0.27844,0.881719 0.55687,1.763437 0.84375,2.671875 C 136,85 136,85 136,89 c -4.53701,1.451845 -8.18061,2.235092 -13,2 0,-2.31 0,-4.62 0,-7 3.465,-0.495 3.465,-0.495 7,-1 -0.33,-2.64 -0.66,-5.28 -1,-8 z"
       fill="#37a6e1"
       id="path18" />
    <path
       d="m 144,59 c 0.99,0 1.98,0 3,0 0.33,0.66 0.66,1.32 1,2 2.11327,0.907254 2.11327,0.907254 4.5625,1.625 0.82629,0.260391 1.65258,0.520781 2.50391,0.789062 0.95712,0.29004 0.95712,0.29004 1.93359,0.585938 -0.57634,4.754817 -2.55068,7.970482 -5,12 -2.4375,-0.75 -2.4375,-0.75 -5,-2 -0.9375,-1.8125 -0.9375,-1.8125 -1,-4 0.9375,-2.75 0.9375,-2.75 2,-5 -0.99,0 -1.98,0 -3,0 0,-0.66 0,-1.32 0,-2 -0.66,0 -1.32,0 -2,0 0.33,-1.32 0.66,-2.64 1,-4 z"
       fill="#1465a6"
       id="path19" />
    <path
       d="m 82,53 c 2.64,0 5.28,0 8,0 0,2.31 0,4.62 0,7 3.465,-0.495 3.465,-0.495 7,-1 0.33,1.32 0.66,2.64 1,4 -9.410023,2.111617 -9.410023,2.111617 -14,3 -1.784098,-3.062467 -2.2288,-5.220793 -2.125,-8.75 0.01805,-0.799219 0.03609,-1.598438 0.05469,-2.421875 C 81.952891,54.224844 81.976094,53.621563 82,53 Z"
       fill="#1566a7"
       id="path20" />
    <path
       d="m 109,17 c 0.33,2.31 0.66,4.62 1,7 -1.98,0.99 -1.98,0.99 -4,2 0.66,2.31 1.32,4.62 2,7 -1.98,0.99 -1.98,0.99 -4,2 -0.4125,-0.9075 -0.825,-1.815 -1.25,-2.75 -1.55943,-3.268957 -1.55943,-3.268957 -3.9375,-5.4375 C 98.214375,26.214375 97.61625,25.61625 97,25 c 0,-0.99 0,-1.98 0,-3 1.432945,-0.841142 2.871544,-1.672657 4.3125,-2.5 0.80051,-0.464063 1.60102,-0.928125 2.42578,-1.40625 C 106,17 106,17 109,17 Z"
       fill="#1364a6"
       id="path21" />
    <path
       d="m 111,15 c 4.29,0 8.58,0 13,0 0,2.31 0,4.62 0,7 -2.31,0 -4.62,0 -7,0 0,2.31 0,4.62 0,7 -1.32,0.33 -2.64,0.66 -4,1 -0.33777,-1.74915 -0.67004,-3.499361 -1,-5.25 -0.18563,-0.974531 -0.37125,-1.949063 -0.5625,-2.953125 C 111,19 111,19 111,15 Z"
       fill="#14396c"
       id="path22" />
    <path
       d="m 94,25 c 3.882812,1.757812 3.882812,1.757812 4.9375,3.9375 C 99,31 99,31 97.5625,32.625 97.046875,33.07875 96.53125,33.5325 96,34 c 0,0.66 0,1.32 0,2 1.960028,1.636763 1.960028,1.636763 4,3 -0.33,1.32 -0.66,2.64 -1,4 -0.99,-0.33 -1.98,-0.66 -3,-1 0,-0.66 0,-1.32 0,-2 C 95.071875,39.71125 94.14375,39.4225 93.1875,39.125 90,38 90,38 87,36 c 0.592836,-3.391924 1.767432,-5.210776 4.0625,-7.75 0.547852,-0.613594 1.095703,-1.227188 1.660156,-1.859375 C 93.14418,25.931719 93.565703,25.472812 94,25 Z"
       fill="#34a5e0"
       id="path23" />
    <path
       d="m 141,21 c 3.98381,2.16264 6.88984,4.712112 10,8 -0.97382,2.515706 -1.46151,3.739441 -3.9375,4.9375 C 145,34 145,34 143.25,32.5625 142.8375,32.046875 142.425,31.53125 142,31 c -0.5775,0.309375 -1.155,0.61875 -1.75,0.9375 -2.09294,0.988334 -3.99535,1.579361 -6.25,2.0625 -0.33,-1.32 -0.66,-2.64 -1,-4 1.32,0 2.64,0 4,0 0.10312,-0.7425 0.20625,-1.485 0.3125,-2.25 0.73003,-2.92014 1.75539,-4.481876 3.6875,-6.75 z"
       fill="#1063a5"
       id="path24" />
    <path
       d="m 144,48 c 6.93,0.495 6.93,0.495 14,1 0,3.96 0,7.92 0,12 -2.31,0 -4.62,0 -7,0 0,-2.64 0,-5.28 0,-8 -2.31,0 -4.62,0 -7,0 0,-1.65 0,-3.3 0,-5 z"
       fill="#36a6e1"
       id="path25" />
    <path
       d="m 263.36227,30.388658 c 20.0171,0 20.0171,0 28.59585,5.71917 0.89362,8.578755 0.89362,8.578755 0,17.157511 -1.88732,1.887326 -3.77466,3.774651 -5.71918,5.71917 -3.77464,0 -7.5493,0 -11.43833,0 0,4.718315 0,9.436631 0,14.297925 -3.77465,0 -7.54931,0 -11.43834,0 0,-14.154946 0,-28.309892 0,-42.893776 z"
       fill="#557397"
       id="path26"
       style="stroke-width:2.85959" />
    <path
       d="m 539.05704,30.388658 c 8.49297,0 16.98593,0 25.73626,0 0,3.774652 0,7.549304 0,11.43834 -4.71831,0 -9.43662,0 -14.29792,0 0,1.887326 0,3.774653 0,5.71917 3.77465,0 7.54931,0 11.43835,0 0,2.83099 0,5.661979 0,8.578756 -4.71833,0 -9.43664,0 -14.29793,0 0,1.887326 0,3.774652 0,5.719169 5.66198,0 11.32396,0 17.1575,0 0,3.774653 0,7.549305 0,11.438341 -8.49297,0 -16.98593,0 -25.73626,0 0,-14.154946 0,-28.309892 0,-42.893776 z"
       fill="#2b4d7b"
       id="path27"
       style="stroke-width:2.85959" />
    <path
       d="m 516.46119,30.388658 c 5.183,3.931929 5.183,3.931929 8.57876,8.578755 0,1.887326 0,3.774653 0,5.71917 -6.60565,0 -13.21129,0 -20.0171,0 -0.94366,4.718315 -1.88733,9.436631 -2.85959,14.297926 7.54931,0 15.09861,0 22.87669,0 -0.94367,3.774652 -1.88734,7.549304 -2.85959,11.43834 -17.87241,4.124408 -17.87241,4.124408 -26.98734,-1.251068 -6.67564,-10.948065 -6.08548,-17.46749 -4.4681,-30.204368 7.45363,-8.833916 14.46413,-10.312922 25.73627,-8.578755 z"
       fill="#264978"
       id="path28"
       style="stroke-width:2.85959" />
    <path
       d="m 118,78 c 1.32,0 2.64,0 4,0 -0.33,4.29 -0.66,8.58 -1,13 -8.57143,0.285714 -8.57143,0.285714 -12,-2 0.33,-1.98 0.66,-3.96 1,-6 2.64,0.33 5.28,0.66 8,1 0,-1.98 0,-3.96 0,-6 z"
       fill="#065ca1"
       id="path29" />
    <path
       d="m 226.46849,33.248242 c 7.54931,0 15.09861,0 22.87669,0 0,2.83099 0,5.661979 0,8.578756 -4.71833,0 -9.43664,0 -14.29793,0 0,1.887326 0,3.774653 0,5.71917 4.71831,0 9.43663,0 14.29793,0 0,2.83099 0,5.661979 0,8.578756 -4.71833,0 -9.43664,0 -14.29793,0 0,2.830989 0,5.661978 0,8.578754 4.71831,0 9.43663,0 14.29793,0 0,1.887327 0,3.774653 0,5.719171 -7.54932,0 -15.09862,0 -22.87669,0 0,-12.26762 0,-24.535241 0,-37.174607 z"
       fill="#13386c"
       id="path30"
       style="stroke-width:2.85959" />
    <path
       d="m 183.85555,33.248242 c 8.49297,0 16.98593,0 25.73626,0 0,3.774653 0,7.549305 0,11.438341 -8.49297,-1.415495 -8.49297,-1.415495 -17.15751,-2.859585 0.5308,2.064248 1.06162,4.128526 1.60852,6.255342 1.30811,8.409382 0.49373,14.165041 -1.60852,22.340509 -2.83099,0 -5.66198,0 -8.57875,0 0,-12.26762 0,-24.535241 0,-37.174607 z"
       fill="#143a6d"
       id="path31"
       style="stroke-width:2.85959" />
    <path
       d="m 118,77 c 1.65,0 3.3,0 5,0 -0.33,4.95 -0.66,9.9 -1,15 -10.48632,0.419453 -10.48632,0.419453 -15,-3 -0.99,-0.33 -1.98,-0.66 -3,-1 0.66,-0.33 1.32,-0.66 2,-1 1.05353,-2.309658 2.05719,-4.642977 3,-7 0.33,0.66 0.66,1.32 1,2 0.66,0.33 1.32,0.66 2,1 -0.66,0 -1.32,0 -2,0 -0.33,1.98 -0.66,3.96 -1,6 5.94,0.99 5.94,0.99 12,2 -0.0309,-2.660625 -0.0309,-2.660625 -0.0625,-5.375 C 120.875,80.25 120.875,80.25 122,78 c -1.32,-0.33 -2.64,-0.66 -4,-1 z"
       fill="#7fa9ca"
       id="path32" />
    <path
       d="m 445.25239,30.388658 c 3.77466,0 7.5493,0 11.43834,0 0,10.380293 0,20.760588 0,31.455435 3.77466,0.943664 7.5493,1.887327 11.43834,2.859585 -5.66198,1.887327 -11.32396,3.774653 -17.1575,5.719171 -5.71918,-5.719171 -5.71918,-5.719171 -6.27769,-13.784087 0.0664,-3.11852 0.13269,-6.237041 0.20103,-9.450042 0.0517,-3.133247 0.10325,-6.266523 0.15642,-9.494709 0.0664,-2.410772 0.13269,-4.821546 0.20103,-7.305353 z"
       fill="#406089"
       id="path33"
       style="stroke-width:2.85959" />
    <path
       d="m 305.97522,33.248242 c 7.5493,0 15.0986,0 22.87668,0 0.94366,3.774653 1.88732,7.549305 2.85958,11.438341 -8.49297,-1.415495 -8.49297,-1.415495 -17.15751,-2.859585 0,3.774653 0,7.549305 0,11.438341 1.88732,0.943662 3.77466,1.887326 5.71916,2.859585 -2.83099,1.415494 -2.83099,1.415494 -5.71916,2.859585 -1.86483,5.789601 -1.86483,5.789601 -2.85959,11.43834 -1.88732,0 -3.77465,0 -5.71916,0 0,-12.26762 0,-24.535241 0,-37.174607 z"
       fill="#0d3368"
       id="path34"
       style="stroke-width:2.85959" />
    <path
       id="path35"
       d="m 366.48289,35.136026 c -7.26137,0.02373 -13.75322,1.819755 -17.89473,9.550557 0.89362,6.255342 0.89362,6.255342 2.85959,11.438341 l 3.48512,-4.64125 c -0.16186,-1.073832 -0.33492,-2.249464 -0.56969,-3.89281 l 5.71916,-5.71917 c 7.50641,1.072316 7.50641,1.072344 14.29793,2.859585 1.78725,5.361692 1.78725,5.361722 2.85959,11.438339 -1.69788,1.697851 -2.89053,2.882091 -3.92636,3.730844 3.99082,1.939914 4.91134,1.943631 12.44926,1.943631 l 0.35745,-9.651099 C 385.76276,41.826998 385.76276,41.826998 380.0436,36.107828 375.47281,35.745061 370.83974,35.1217 366.48289,35.136026 Z"
       style="fill:#7e95b1;fill-opacity:1;stroke-width:2.85959" />
    <path
       d="m 399.77986,36.107828 c 6.60564,0 13.21128,0 20.01709,0 -3.77464,0.943663 -7.5493,1.887327 -11.43834,2.859585 0,8.492968 0,16.985935 0,25.736265 3.77466,0 7.54931,0 11.43834,0 0,1.887327 0,3.774653 0,5.719171 -6.60563,0 -13.21128,0 -20.01709,0 0,-11.323957 0,-22.647914 0,-34.315021 z"
       fill="#10366a"
       id="path36"
       style="stroke-width:2.85959" />
    <path
       d="m 266.22185,36.107828 c 5.66198,0 11.32396,0 17.15752,0 -2.83099,0.943663 -5.66198,1.887327 -8.57876,2.859585 0,3.774653 0,7.549304 0,11.43834 2.83098,0.943663 5.66197,1.887326 8.57876,2.859586 -2.83099,0.943662 -5.66198,1.887326 -8.57876,2.859585 0,4.718315 0,9.43663 0,14.297925 -2.83099,0 -5.66198,0 -8.57876,0 0,-11.323957 0,-22.647914 0,-34.315021 z"
       fill="#0d3368"
       id="path38"
       style="stroke-width:2.85959" />
    <path
       d="m 154,48 c 1.65,0 3.3,0 5,0 0.054,2.437796 0.0937,4.874397 0.125,7.3125 0.0251,1.03544 0.0251,1.03544 0.0508,2.091797 0.0364,3.767057 -0.032,5.38002 -2.17578,8.595703 -0.33,-0.66 -0.66,-1.32 -1,-2 -1.88765,-0.684727 -1.88765,-0.684727 -4.0625,-1.125 -1.10021,-0.251367 -1.10021,-0.251367 -2.22266,-0.507812 C 149.14895,62.246016 148.58305,62.124844 148,62 c 0.66,-0.33 1.32,-0.66 2,-1 0.33,-0.99 0.66,-1.98 1,-3 0,0.99 0,1.98 0,3 2.31,0 4.62,0 7,0 0,-3.96 0,-7.92 0,-12 -1.32,-0.33 -2.64,-0.66 -4,-1 z"
       fill="#95cdea"
       id="path39" />
    <path
       d="m 96,23 c 2.333333,2.333333 4.66667,4.666667 7,7 -0.375,2.125 -0.375,2.125 -1,4 0,-0.66 0,-1.32 0,-2 -2.31,1.32 -4.62,2.64 -7,4 0.309375,-0.598125 0.61875,-1.19625 0.9375,-1.8125 C 97.102097,31.910432 97.102097,31.910432 98,29 c -1.871975,-2.694333 -1.871975,-2.694333 -4,-5 0.66,-0.33 1.32,-0.66 2,-1 z"
       fill="#c0e1f1"
       id="path42" />
    <path
       id="path44"
       d="m 718.58065,36.822724 c -1.62937,0 -3.11557,0.309665 -5.13273,0.915954 1.20412,0.164998 2.19441,0.301715 4.43459,0.608777 0.94592,2.809399 1.76622,5.636128 2.4742,8.478241 -0.18759,0.128681 -0.33954,0.230769 -0.50266,0.340691 0.0323,0.126679 0.0686,0.253073 0.1006,0.379781 h 1.12808 l 5.71917,20.017095 h 2.85959 v -28.59585 c -5.71917,-1.429793 -8.57876,-2.144689 -11.08089,-2.144689 z"
       style="fill:#627e9f;fill-opacity:1;stroke-width:2.85959" />
    <path
       d="m 148,37 c -0.75,1.9375 -0.75,1.9375 -2,4 -2.125,0.75 -2.125,0.75 -4,1 -0.66,-1.32 -1.32,-2.64 -2,-4 5.75,-2.125 5.75,-2.125 8,-1 z"
       fill="#2b4e7b"
       id="path47" />
    <path
       d="m 110,16 c 2.12508,3.187624 2.50202,5.265122 3,9 -1.65,0 -3.3,0 -5,0 0.66,-0.33 1.32,-0.66 2,-1 -0.27844,-1.701563 -0.27844,-1.701563 -0.5625,-3.4375 C 109.22094,18.799062 109.22094,18.799062 109,17 c 0.33,-0.33 0.66,-0.66 1,-1 z"
       fill="#b1ccdf"
       id="path48" />
    <path
       d="m 139,19 c 0.66,0.99 1.32,1.98 2,3 -1.32,2.64 -2.64,5.28 -4,8 -0.99,-0.33 -1.98,-0.66 -3,-1 0.66,0 1.32,0 2,0 -0.33,-0.99 -0.66,-1.98 -1,-3 1.375,-2 1.375,-2 3,-4 0.33,-0.99 0.66,-1.98 1,-3 z"
       fill="#b3d7eb"
       id="path49" />
    <path
       d="m 305.97522,33.248242 c 7.5493,0 15.0986,0 22.87668,0 0.94366,3.774653 1.88732,7.549305 2.85958,11.438341 -15.8377,-1.759731 -15.8377,-1.759731 -22.51924,-7.327686 -1.06161,-1.356502 -2.12324,-2.713032 -3.21702,-4.110655 z"
       fill="#183d6f"
       id="path50"
       style="stroke-width:2.85959" />
    <path
       d="m 144,71 c 2,0 2,0 4,1.875 0.66,0.70125 1.32,1.4025 2,2.125 0.66,0.66 1.32,1.32 2,2 -0.66,0 -1.32,0 -2,0 -0.33,0.66 -0.66,1.32 -1,2 -0.61875,-0.78375 -1.2375,-1.5675 -1.875,-2.375 C 145.10141,74.031623 145.10141,74.031623 143,72 c 0.33,-0.33 0.66,-0.66 1,-1 z"
       fill="#b3cbdd"
       id="path51" />
    <path
       d="m 150,46 c 2.97,0.33 5.94,0.66 9,1 0,0.33 0,0.66 0,1 -3.63,0.33 -7.26,0.66 -11,1 0.66,-0.99 1.32,-1.98 2,-3 z"
       fill="#d2e7f1"
       id="path52" />
    <path
       d="m 135,80 c 1.89213,2.385734 3.02392,4.071753 4,7 -0.33,0.66 -0.66,1.32 -1,2 -0.66,-0.33 -1.32,-0.66 -2,-1 -0.73076,-2.314062 -1.40138,-4.648289 -2,-7 0.33,-0.33 0.66,-0.66 1,-1 z"
       fill="#bddbeb"
       id="path53" />
    <path
       d="m 151,30 c 0.33,0.99 0.66,1.98 1,3 -2.3125,1.5625 -2.3125,1.5625 -5,3 -0.99,-0.33 -1.98,-0.66 -3,-1 1.39317,-2.786338 3.15981,-2.934927 6,-4 0.33,-0.33 0.66,-0.66 1,-1 z"
       fill="#b4cee0"
       id="path54" />
  </g>
</svg>
