<?xml version="1.0" encoding="UTF-8" standalone="no"?>
<svg
   version="1.1"
   width="242"
   height="123"
   id="svg54"
   sodipodi:docname="product_logo.svg"
   inkscape:export-filename="product_logo.svg"
   inkscape:export-xdpi="96"
   inkscape:export-ydpi="96"
   xmlns:inkscape="http://www.inkscape.org/namespaces/inkscape"
   xmlns:sodipodi="http://sodipodi.sourceforge.net/DTD/sodipodi-0.dtd"
   xmlns="http://www.w3.org/2000/svg"
   xmlns:svg="http://www.w3.org/2000/svg">
  <defs
     id="defs54" />
  <sodipodi:namedview
     id="namedview54"
     pagecolor="#ffffff"
     bordercolor="#000000"
     borderopacity="0.25"
     inkscape:showpageshadow="2"
     inkscape:pageopacity="0.0"
     inkscape:pagecheckerboard="0"
     inkscape:deskcolor="#d1d1d1" />
  <path
     d="m 0,0 c 79.86,0 159.72,0 242,0 0,40.59 0,81.18 0,123 -79.86,0 -159.72,0 -242,0 C 0,82.41 0,41.82 0,0 Z"
     fill="#F2FDFE"
     id="path1"
     style="fill:#f2fdfe;fill-opacity:0" />
  <path
     d="m 119.625,14.625 c 1.19182,-0.0019 1.19182,-0.0019 2.40771,-0.0039 C 128.58146,14.738107 134.09534,16.086689 140,19 c 0,0.66 0,1.32 0,2 1.02094,0.278437 1.02094,0.278437 2.0625,0.5625 C 149.78181,25.340035 155.09292,33.052421 158,41 c -0.34375,2.835937 -0.34375,2.835937 -1,5 0.66,0.33 1.32,0.66 2,1 0.97666,11.937008 -0.73762,19.775702 -7,30 -0.66,0 -1.32,0 -2,0 -0.2475,0.592969 -0.495,1.185938 -0.75,1.796875 -1.43969,2.537451 -2.90152,3.743566 -5.25,5.453125 -1.05188,0.781172 -1.05188,0.781172 -2.125,1.578125 C 140,87 140,87 138,87 c 0,0.66 0,1.32 0,2 -4.455,0.495 -4.455,0.495 -9,1 0,0.66 0,1.32 0,2 -2.72977,0.08126 -5.4571,0.140617 -8.1875,0.1875 -0.76893,0.02514 -1.53785,0.05027 -2.33008,0.07617 C 113.69202,92.325351 111.01989,91.83463 107,89 106.00227,88.750566 106.00227,88.750566 104.98438,88.496094 102.35488,87.83872 100.49715,86.564273 98.25,85.0625 97.450781,84.537852 96.651563,84.013203 95.828125,83.472656 95.224844,82.98668 94.621563,82.500703 94,82 c 0,-0.66 0,-1.32 0,-2 -0.99,0 -1.98,0 -3,0 C 90.184328,78.564297 89.372579,77.126366 88.5625,75.6875 88.110039,74.886992 87.657578,74.086484 87.191406,73.261719 86,71 86,71 85,68 c 1.32,-0.66 2.64,-1.32 4,-2 -1.65,0 -3.3,0 -5,0 -2.69542,-3.984066 -2.33128,-8.18892 -2.3125,-12.8125 -0.01611,-0.781816 -0.03223,-1.563633 -0.04883,-2.369141 -0.0045,-5.35215 0.943536,-9.04019 3.361328,-13.818359 0.66,0 1.32,0 2,0 0.04125,-0.66 0.0825,-1.32 0.125,-2 C 89.593762,26.535665 95.668179,22.556862 103.09765,18.445312 104.05543,17.968359 105.0132,17.491406 106,17 c 1.15435,-0.580078 1.15435,-0.580078 2.33203,-1.171875 3.77909,-1.173012 7.35557,-1.209694 11.29297,-1.203125 z"
     fill="#E9F6FA"
     id="path2"
     style="fill:#e9f6fa;fill-opacity:0" />
  <path
     id="path3"
     d="M 119.97266,41.632812 C 117.9215,41.646436 115.10156,41.790737 111,42 v 25 h 6 v -8 l 1.8125,0.125 c 2.53851,0.752398 2.53851,0.752402 3.9375,3.9375 L 124,66 h 7 c -1.20202,-1.92993 -2.28441,-3.879635 -3.30859,-5.910156 C 126.69007,57.871192 126.69007,57.871187 128.25,55.375 130,53.000002 130,52.999997 130.5625,50 130,47.000003 130,46.999997 127.8125,44.125 c -2.53515,-1.921315 -3.32729,-2.52216 -7.83984,-2.492188 z M 117,48 h 6 c 0.5625,1.937498 0.5625,1.937502 1,4 -1,0.999999 -1,1 -4.0625,1.0625 L 117,53 Z"
     style="fill:#173c6e;fill-opacity:1" />
  <path
     d="m 82,53 c 2.64,0 5.28,0 8,0 0,2.31 0,4.62 0,7 3.465,-0.495 3.465,-0.495 7,-1 0.33,1.32 0.66,2.64 1,4 -1.65,0.66 -3.3,1.32 -5,2 0.66,1.65 1.32,3.3 2,5 2.31,-0.66 4.62,-1.32 7,-2 0.66,1.32 1.32,2.64 2,4 -0.9075,0.598125 -1.815,1.19625 -2.75,1.8125 C 98.770985,75.481068 96.366821,77.179369 94,79 c -4.449072,-1.483024 -6.745794,-5.082855 -9,-9 0,-0.66 0,-1.32 0,-2 1.32,-0.66 2.64,-1.32 4,-2 -1.65,0 -3.3,0 -5,0 -1.784098,-3.062467 -2.2288,-5.220793 -2.125,-8.75 0.01805,-0.799219 0.03609,-1.598438 0.05469,-2.421875 C 81.952891,54.224844 81.976094,53.621563 82,53 Z"
     fill="#3fa9e0"
     id="path4" />
  <path
     id="path5"
     d="M 103.89844,105.73828 C 102.73322,105.74684 101.21206,105.85003 99,106 v 15 c 4.45909,0.30231 7.00765,0.51685 11,-1.5625 C 112,117 112,117 112.625,113.5 112,110 112,110 110,107.5625 c -2.69597,-1.40415 -3.53809,-1.84304 -6.10156,-1.82422 z M 103,110 l 5,1 c 0.38219,1.65614 0.71395,3.32457 1,5 -0.0763,0.0763 -0.13888,0.13608 -0.20508,0.20117 0.0183,0.10487 0.0387,0.20953 0.0566,0.31446 -1,0.99999 -1,1 -3.5625,1.0625 l -2.4375,-0.0625 v -7 L 103,110.54492 Z"
     style="fill:#375883;fill-opacity:1" />
  <path
     id="path6"
     d="M 85.382812,106.04492 C 82.962893,106.02271 82.69531,106.17969 80.5625,107.4375 78.228022,111.26604 78.434401,113.54591 79,118 c 2.051428,2.43132 3.33749,2.88109 6.4375,3.4375 3.584496,-0.61199 5.138031,-1.73595 7.5625,-4.4375 0.487235,-3.47155 0.692971,-5.77711 -1.0625,-8.875 -1.937498,-1.125 -1.937503,-1.125 -5.375,-2.0625 -0.445312,-0.008 -0.833985,-0.0144 -1.179688,-0.0176 z M 84,110 c 2.624997,0.375 2.625002,0.375 5,1 0.624999,1.875 0.625,1.875 1,4 -1.999998,2 -2.000003,2 -4.625,2.125 L 83,117 c -0.624999,-2.375 -0.625,-2.375 -1,-5 z"
     style="fill:#2c4e7c;fill-opacity:1" />
  <path
     d="m 13,106 c 7.384615,-0.36923 7.384615,-0.36923 10.5,1.5 0.495,0.495 0.99,0.99 1.5,1.5 -0.185625,1.2375 -0.37125,2.475 -0.5625,3.75 -0.384612,3.0128 -0.524959,5.35011 0.5625,8.25 -1.32,0 -2.64,0 -4,0 -0.33,-1.32 -0.66,-2.64 -1,-4 -0.66,0 -1.32,0 -2,0 0,1.32 0,2.64 0,4 -1.65,0 -3.3,0 -5,0 0,-4.95 0,-9.9 0,-15 z"
     fill="#6681a2"
     id="path7" />
  <path
     id="path8"
     style="fill:#31537f;fill-opacity:1"
     d="m 222.10937,105.80078 c -1.17211,0.007 -2.77624,0.0845 -5.10937,0.19922 v 15 l 3.8125,0.125 c 3.47813,0.11404 4.09862,-0.0657 7.1875,-2.125 l 0.39844,-2.27734 -0.0234,-2.66016 c 0.0256,-2.89372 0.0328,-4.47913 -1.63672,-6.86719 -1.56217,-1.07421 -2.05026,-1.40894 -4.62891,-1.39453 z m -2.60351,2.39453 c 2.14211,0.29364 2.14078,0.29418 4.32617,0.59375 0.33079,0.98245 0.61766,1.97291 0.86524,2.9668 -0.0655,0.0449 -0.11885,0.0788 -0.17579,0.11719 0.0159,0.0625 0.0333,0.125 0.0488,0.1875 -0.8655,0.59321 -0.86613,0.59378 -3.08398,0.63086 -1.04429,-0.0184 -1.04401,-0.0184 -2.10938,-0.0371 v -4.15235 l 0.12891,0.0176 z m 2.29883,6.11914 c 2.68782,0.0371 2.68742,0.0376 3.73633,0.63086 -0.0187,0.0618 -0.0376,0.12376 -0.0566,0.18555 0.0691,0.0384 0.13336,0.0742 0.2129,0.11914 -0.30004,0.99389 -0.64795,1.98435 -1.04883,2.9668 l -5.24414,0.59375 v -0.32422 c -0.0729,0.008 -0.0789,0.009 -0.15625,0.0176 v -4.15235 c 1.29112,-0.0187 1.29106,-0.0187 2.55664,-0.0371 z" />
  <path
     d="m 62,106 c 7.263256,-0.35721 7.263256,-0.35721 10.0625,1 1.308674,2.79184 0.706428,5.09715 0.199219,8.05859 C 71.963993,117.26709 72.21829,118.91544 73,121 c -3.269542,-0.56371 -4.825759,-1.49962 -7,-4 0,1.32 0,2.64 0,4 -1.32,0 -2.64,0 -4,0 0,-4.95 0,-9.9 0,-15 z"
     fill="#557397"
     id="path9" />
  <path
     d="m 180,106 c 1.32,0 2.64,0 4,0 0,1.98 0,3.96 0,6 1.65,0 3.3,0 5,0 0,-1.98 0,-3.96 0,-6 1.32,0 2.64,0 4,0 0,4.95 0,9.9 0,15 -1.32,0 -2.64,0 -4,0 0,-1.98 0,-3.96 0,-6 -1.65,0 -3.3,0 -5,0 0,1.98 0,3.96 0,6 -1.32,0 -2.64,0 -4,0 0,-4.95 0,-9.9 0,-15 z"
     fill="#2f517e"
     id="path10" />
  <path
     d="m 85,38 c 2.97,0.495 2.97,0.495 6,1 1.03268,2.788237 1.045093,3.867727 0.0625,6.75 C 90.711875,46.4925 90.36125,47.235 90,48 c 2.31,0 4.62,0 7,0 0,1.65 0,3.3 0,5 -1.32,0 -2.64,0 -4,0 0,-0.66 0,-1.32 0,-2 -3.63,0 -7.26,0 -11,0 -0.315632,-5.26053 0.334091,-8.445738 3,-13 z"
     fill="#214575"
     id="path11" />
  <path
     d="m 139,68 c 0.99,0.33 1.98,0.66 3,1 0.33,0.99 0.66,1.98 1,3 1.40106,1.428571 1.40106,1.428571 3.0625,2.6875 0.96938,0.763125 1.93875,1.52625 2.9375,2.3125 -0.34486,2.884245 -0.78255,3.820782 -3.06641,5.703125 -0.82371,0.510469 -1.64742,1.020938 -2.49609,1.546875 -0.82629,0.520781 -1.65258,1.041563 -2.50391,1.578125 C 140.29551,86.214844 139.65742,86.601562 139,87 c -3,-4.625 -3,-4.625 -3,-8 0.99,-0.66 1.98,-1.32 3,-2 -0.165,-0.5775 -0.33,-1.155 -0.5,-1.75 C 138,73 138,73 138,69 c 0.33,-0.33 0.66,-0.66 1,-1 z"
     fill="#1b3f71"
     id="path12" />
  <path
     d="m 152,32 c 2.98771,2.56089 4.54474,5.361839 6,9 -0.3125,2.875 -0.3125,2.875 -1,5 -2.31,0 -4.62,0 -7,0 -0.33,-1.98 -0.66,-3.96 -1,-6 -2.31,0.66 -4.62,1.32 -7,2 -0.66,-1.32 -1.32,-2.64 -2,-4 0.61488,-0.265547 1.22977,-0.531094 1.86328,-0.804688 0.80824,-0.353203 1.61649,-0.706406 2.44922,-1.070312 0.80051,-0.348047 1.60102,-0.696094 2.42578,-1.054688 C 149.19618,33.974281 149.19618,33.974281 152,32 Z"
     fill="#173c6f"
     id="path13" />
  <path
     d="m 126,15 c 9.10714,1.875 9.10714,1.875 13,4 -0.3125,2.375 -0.3125,2.375 -1,5 -0.99,0.66 -1.98,1.32 -3,2 -3.1875,-0.875 -3.1875,-0.875 -6,-2 -0.33,1.98 -0.66,3.96 -1,6 -1.65,-0.33 -3.3,-0.66 -5,-1 0,-0.99 0,-1.98 0,-3 0.66,0 1.32,0 2,0 0.33,-3.63 0.66,-7.26 1,-11 z"
     fill="#36a6e1"
     id="path14" />
  <path
     d="m 118,106 c 1.32,0 2.64,0 4,0 0,3.63 0,7.26 0,11 1.32,0 2.64,0 4,0 0,-3.63 0,-7.26 0,-11 1.32,0 2.64,0 4,0 0.10807,1.93628 0.18562,3.87428 0.25,5.8125 0.0464,1.07895 0.0928,2.15789 0.14062,3.26953 C 130,118 130,118 128.14453,119.86328 125.49653,121.26687 123.95712,121.45494 121,121 c -1.64062,-1.13672 -1.64062,-1.13672 -3,-3 -0.29297,-2.91797 -0.29297,-2.91797 -0.1875,-6.1875 0.0271,-1.08668 0.0541,-2.17336 0.082,-3.29297 0.0348,-0.83144 0.0696,-1.66289 0.10547,-2.51953 z"
     fill="#2d4f7d"
     id="path15" />
  <path
     d="m 199,106 c 1.32,0 2.64,0 4,0 0,3.63 0,7.26 0,11 1.32,0 2.64,0 4,0 0,-3.63 0,-7.26 0,-11 1.32,0 2.64,0 4,0 0.10807,1.93628 0.18562,3.87428 0.25,5.8125 0.0464,1.07895 0.0928,2.15789 0.14062,3.26953 C 211,118 211,118 209.14453,119.86328 206.49653,121.26687 204.95712,121.45494 202,121 c -1.64063,-1.13672 -1.64063,-1.13672 -3,-3 -0.29297,-2.91797 -0.29297,-2.91797 -0.1875,-6.1875 0.0271,-1.08668 0.0541,-2.17336 0.082,-3.29297 0.0348,-0.83144 0.0696,-1.66289 0.10547,-2.51953 z"
     fill="#365783"
     id="path16" />
  <path
     d="m 108,75 c 1.32,0.33 2.64,0.66 4,1 0,0.99 0,1.98 0,3 -1,1 -2,2 -3,3 -1.04623,1.97621 -2.0544,3.973713 -3,6 -4.51478,-0.531151 -7.346669,-2.366203 -11,-5 0.398036,-2.885758 0.790091,-3.821895 3.0625,-5.75 0.639375,-0.4125 1.27875,-0.825 1.9375,-1.25 1.98,0.99 3.96,1.98 6,3 0.66,-1.32 1.32,-2.64 2,-4 z"
     fill="#193d6f"
     id="path17" />
  <path
     d="m 129,75 c 1.32,0 2.64,0 4,0 0.50693,1.581129 1.00526,3.165014 1.5,4.75 0.27844,0.881719 0.55687,1.763437 0.84375,2.671875 C 136,85 136,85 136,89 c -4.53701,1.451845 -8.18061,2.235092 -13,2 0,-2.31 0,-4.62 0,-7 3.465,-0.495 3.465,-0.495 7,-1 -0.33,-2.64 -0.66,-5.28 -1,-8 z"
     fill="#37a6e1"
     id="path18" />
  <path
     d="m 144,59 c 0.99,0 1.98,0 3,0 0.33,0.66 0.66,1.32 1,2 2.11327,0.907254 2.11327,0.907254 4.5625,1.625 0.82629,0.260391 1.65258,0.520781 2.50391,0.789062 0.95712,0.29004 0.95712,0.29004 1.93359,0.585938 -0.57634,4.754817 -2.55068,7.970482 -5,12 -2.4375,-0.75 -2.4375,-0.75 -5,-2 -0.9375,-1.8125 -0.9375,-1.8125 -1,-4 0.9375,-2.75 0.9375,-2.75 2,-5 -0.99,0 -1.98,0 -3,0 0,-0.66 0,-1.32 0,-2 -0.66,0 -1.32,0 -2,0 0.33,-1.32 0.66,-2.64 1,-4 z"
     fill="#1465a6"
     id="path19" />
  <path
     d="m 82,53 c 2.64,0 5.28,0 8,0 0,2.31 0,4.62 0,7 3.465,-0.495 3.465,-0.495 7,-1 0.33,1.32 0.66,2.64 1,4 -9.410023,2.111617 -9.410023,2.111617 -14,3 -1.784098,-3.062467 -2.2288,-5.220793 -2.125,-8.75 0.01805,-0.799219 0.03609,-1.598438 0.05469,-2.421875 C 81.952891,54.224844 81.976094,53.621563 82,53 Z"
     fill="#1566a7"
     id="path20" />
  <path
     d="m 109,17 c 0.33,2.31 0.66,4.62 1,7 -1.98,0.99 -1.98,0.99 -4,2 0.66,2.31 1.32,4.62 2,7 -1.98,0.99 -1.98,0.99 -4,2 -0.4125,-0.9075 -0.825,-1.815 -1.25,-2.75 -1.55943,-3.268957 -1.55943,-3.268957 -3.9375,-5.4375 C 98.214375,26.214375 97.61625,25.61625 97,25 c 0,-0.99 0,-1.98 0,-3 1.432945,-0.841142 2.871544,-1.672657 4.3125,-2.5 0.80051,-0.464063 1.60102,-0.928125 2.42578,-1.40625 C 106,17 106,17 109,17 Z"
     fill="#1364a6"
     id="path21" />
  <path
     d="m 111,15 c 4.29,0 8.58,0 13,0 0,2.31 0,4.62 0,7 -2.31,0 -4.62,0 -7,0 0,2.31 0,4.62 0,7 -1.32,0.33 -2.64,0.66 -4,1 -0.33777,-1.74915 -0.67004,-3.499361 -1,-5.25 -0.18563,-0.974531 -0.37125,-1.949063 -0.5625,-2.953125 C 111,19 111,19 111,15 Z"
     fill="#14396c"
     id="path22" />
  <path
     d="m 94,25 c 3.882812,1.757812 3.882812,1.757812 4.9375,3.9375 C 99,31 99,31 97.5625,32.625 97.046875,33.07875 96.53125,33.5325 96,34 c 0,0.66 0,1.32 0,2 1.960028,1.636763 1.960028,1.636763 4,3 -0.33,1.32 -0.66,2.64 -1,4 -0.99,-0.33 -1.98,-0.66 -3,-1 0,-0.66 0,-1.32 0,-2 C 95.071875,39.71125 94.14375,39.4225 93.1875,39.125 90,38 90,38 87,36 c 0.592836,-3.391924 1.767432,-5.210776 4.0625,-7.75 0.547852,-0.613594 1.095703,-1.227188 1.660156,-1.859375 C 93.14418,25.931719 93.565703,25.472812 94,25 Z"
     fill="#34a5e0"
     id="path23" />
  <path
     d="m 141,21 c 3.98381,2.16264 6.88984,4.712112 10,8 -0.97382,2.515706 -1.46151,3.739441 -3.9375,4.9375 C 145,34 145,34 143.25,32.5625 142.8375,32.046875 142.425,31.53125 142,31 c -0.5775,0.309375 -1.155,0.61875 -1.75,0.9375 -2.09294,0.988334 -3.99535,1.579361 -6.25,2.0625 -0.33,-1.32 -0.66,-2.64 -1,-4 1.32,0 2.64,0 4,0 0.10312,-0.7425 0.20625,-1.485 0.3125,-2.25 0.73003,-2.92014 1.75539,-4.481876 3.6875,-6.75 z"
     fill="#1063a5"
     id="path24" />
  <path
     d="m 144,48 c 6.93,0.495 6.93,0.495 14,1 0,3.96 0,7.92 0,12 -2.31,0 -4.62,0 -7,0 0,-2.64 0,-5.28 0,-8 -2.31,0 -4.62,0 -7,0 0,-1.65 0,-3.3 0,-5 z"
     fill="#36a6e1"
     id="path25" />
  <path
     d="m 46,106 c 7,0 7,0 10,2 0.3125,3 0.3125,3 0,6 -0.66,0.66 -1.32,1.32 -2,2 -1.32,0 -2.64,0 -4,0 0,1.65 0,3.3 0,5 -1.32,0 -2.64,0 -4,0 0,-4.95 0,-9.9 0,-15 z"
     fill="#557397"
     id="path26" />
  <path
     d="m 155,106 c 2.97,0 5.94,0 9,0 0,1.32 0,2.64 0,4 -1.65,0 -3.3,0 -5,0 0,0.66 0,1.32 0,2 1.32,0 2.64,0 4,0 0,0.99 0,1.98 0,3 -1.65,0 -3.3,0 -5,0 0,0.66 0,1.32 0,2 1.98,0 3.96,0 6,0 0,1.32 0,2.64 0,4 -2.97,0 -5.94,0 -9,0 0,-4.95 0,-9.9 0,-15 z"
     fill="#2b4d7b"
     id="path27" />
  <path
     d="m 145,106 c 1.8125,1.375 1.8125,1.375 3,3 0,0.66 0,1.32 0,2 -2.31,0 -4.62,0 -7,0 -0.33,1.65 -0.66,3.3 -1,5 2.64,0 5.28,0 8,0 -0.33,1.32 -0.66,2.64 -1,4 -6.25,1.44231 -6.25,1.44231 -9.4375,-0.4375 C 135.22802,115.73395 135.4344,113.4541 136,109 c 2.60654,-3.08923 5.05812,-3.60644 9,-3 z"
     fill="#264978"
     id="path28" />
  <path
     d="m 118,78 c 1.32,0 2.64,0 4,0 -0.33,4.29 -0.66,8.58 -1,13 -8.57143,0.285714 -8.57143,0.285714 -12,-2 0.33,-1.98 0.66,-3.96 1,-6 2.64,0.33 5.28,0.66 8,1 0,-1.98 0,-3.96 0,-6 z"
     fill="#065ca1"
     id="path29" />
  <path
     d="m 31,107 c 2.64,0 5.28,0 8,0 0,0.99 0,1.98 0,3 -1.65,0 -3.3,0 -5,0 0,0.66 0,1.32 0,2 1.65,0 3.3,0 5,0 0,0.99 0,1.98 0,3 -1.65,0 -3.3,0 -5,0 0,0.99 0,1.98 0,3 1.65,0 3.3,0 5,0 0,0.66 0,1.32 0,2 -2.64,0 -5.28,0 -8,0 0,-4.29 0,-8.58 0,-13 z"
     fill="#13386c"
     id="path30" />
  <path
     d="m 14,107 c 2.97,0 5.94,0 9,0 0,1.32 0,2.64 0,4 -2.97,-0.495 -2.97,-0.495 -6,-1 0.185625,0.72187 0.37125,1.44375 0.5625,2.1875 0.457453,2.94077 0.172664,4.95353 -0.5625,7.8125 -0.99,0 -1.98,0 -3,0 0,-4.29 0,-8.58 0,-13 z"
     fill="#143a6d"
     id="path31" />
  <path
     d="m 118,77 c 1.65,0 3.3,0 5,0 -0.33,4.95 -0.66,9.9 -1,15 -10.48632,0.419453 -10.48632,0.419453 -15,-3 -0.99,-0.33 -1.98,-0.66 -3,-1 0.66,-0.33 1.32,-0.66 2,-1 1.05353,-2.309658 2.05719,-4.642977 3,-7 0.33,0.66 0.66,1.32 1,2 0.66,0.33 1.32,0.66 2,1 -0.66,0 -1.32,0 -2,0 -0.33,1.98 -0.66,3.96 -1,6 5.94,0.99 5.94,0.99 12,2 -0.0309,-2.660625 -0.0309,-2.660625 -0.0625,-5.375 C 120.875,80.25 120.875,80.25 122,78 c -1.32,-0.33 -2.64,-0.66 -4,-1 z"
     fill="#7fa9ca"
     id="path32" />
  <path
     d="m 118,106 c 1.32,0 2.64,0 4,0 0,3.63 0,7.26 0,11 1.32,0.33 2.64,0.66 4,1 -1.98,0.66 -3.96,1.32 -6,2 -2,-2 -2,-2 -2.19531,-4.82031 0.0232,-1.09055 0.0464,-2.1811 0.0703,-3.30469 0.0181,-1.0957 0.0361,-2.19141 0.0547,-3.32031 0.0232,-0.84305 0.0464,-1.6861 0.0703,-2.55469 z"
     fill="#406089"
     id="path33" />
  <path
     d="m 63,107 c 2.64,0 5.28,0 8,0 0.33,1.32 0.66,2.64 1,4 -2.97,-0.495 -2.97,-0.495 -6,-1 0,1.32 0,2.64 0,4 0.66,0.33 1.32,0.66 2,1 -0.99,0.495 -0.99,0.495 -2,1 -0.652133,2.02463 -0.652133,2.02463 -1,4 -0.66,0 -1.32,0 -2,0 0,-4.29 0,-8.58 0,-13 z"
     fill="#0d3368"
     id="path34" />
  <path
     id="path35"
     d="M 86.257812,107.66016 C 83.718504,107.6685 81.448287,108.29653 80,111 c 0.3125,2.1875 0.312501,2.1875 1,4 l 1.21875,-1.62305 c -0.05664,-0.37552 -0.117121,-0.78664 -0.199219,-1.36132 l 2,-2 c 2.624998,0.37499 2.625003,0.375 5,1 0.625,1.87499 0.625001,1.875 1,4 -0.593749,0.59374 -1.010823,1.00787 -1.373047,1.30468 C 90.04207,116.9987 90.363986,117 93,117 l 0.125,-3.375 C 93,110 92.999998,110 91,108 c -1.598404,-0.12686 -3.218602,-0.34485 -4.742188,-0.33984 z"
     style="fill:#7e95b1;fill-opacity:1" />
  <path
     d="m 100,108 c 2.31,0 4.62,0 7,0 -1.32,0.33 -2.64,0.66 -4,1 0,2.97 0,5.94 0,9 1.32,0 2.64,0 4,0 0,0.66 0,1.32 0,2 -2.31,0 -4.62,0 -7,0 0,-3.96 0,-7.92 0,-12 z"
     fill="#10366a"
     id="path36" />
  <path
     d="m 47,108 c 1.98,0 3.96,0 6,0 -0.99,0.33 -1.98,0.66 -3,1 0,1.32 0,2.64 0,4 0.99,0.33 1.98,0.66 3,1 -0.99,0.33 -1.98,0.66 -3,1 0,1.65 0,3.3 0,5 -0.99,0 -1.98,0 -3,0 0,-3.96 0,-7.92 0,-12 z"
     fill="#0d3368"
     id="path38" />
  <path
     d="m 154,48 c 1.65,0 3.3,0 5,0 0.054,2.437796 0.0937,4.874397 0.125,7.3125 0.0251,1.03544 0.0251,1.03544 0.0508,2.091797 0.0364,3.767057 -0.032,5.38002 -2.17578,8.595703 -0.33,-0.66 -0.66,-1.32 -1,-2 -1.88765,-0.684727 -1.88765,-0.684727 -4.0625,-1.125 -1.10021,-0.251367 -1.10021,-0.251367 -2.22266,-0.507812 C 149.14895,62.246016 148.58305,62.124844 148,62 c 0.66,-0.33 1.32,-0.66 2,-1 0.33,-0.99 0.66,-1.98 1,-3 0,0.99 0,1.98 0,3 2.31,0 4.62,0 7,0 0,-3.96 0,-7.92 0,-12 -1.32,-0.33 -2.64,-0.66 -4,-1 z"
     fill="#95cdea"
     id="path39" />
  <path
     d="m 96,23 c 2.333333,2.333333 4.66667,4.666667 7,7 -0.375,2.125 -0.375,2.125 -1,4 0,-0.66 0,-1.32 0,-2 -2.31,1.32 -4.62,2.64 -7,4 0.309375,-0.598125 0.61875,-1.19625 0.9375,-1.8125 C 97.102097,31.910432 97.102097,31.910432 98,29 c -1.871975,-2.694333 -1.871975,-2.694333 -4,-5 0.66,-0.33 1.32,-0.66 2,-1 z"
     fill="#c0e1f1"
     id="path42" />
  <path
     id="path44"
     d="m 224.07422,108.25 c -0.56979,0 -1.08952,0.10829 -1.79492,0.32031 0.42108,0.0577 0.76739,0.10551 1.55078,0.21289 0.33079,0.98245 0.61765,1.97096 0.86523,2.96485 -0.0656,0.045 -0.11874,0.0807 -0.17578,0.11914 0.0113,0.0443 0.024,0.0885 0.0352,0.13281 h 0.39449 l 2,7 h 1 v -10 c -2,-0.5 -3,-0.75 -3.875,-0.75 z"
     style="fill:#627e9f;fill-opacity:1" />
  <path
     d="m 148,37 c -0.75,1.9375 -0.75,1.9375 -2,4 -2.125,0.75 -2.125,0.75 -4,1 -0.66,-1.32 -1.32,-2.64 -2,-4 5.75,-2.125 5.75,-2.125 8,-1 z"
     fill="#2b4e7b"
     id="path47" />
  <path
     d="m 110,16 c 2.12508,3.187624 2.50202,5.265122 3,9 -1.65,0 -3.3,0 -5,0 0.66,-0.33 1.32,-0.66 2,-1 -0.27844,-1.701563 -0.27844,-1.701563 -0.5625,-3.4375 C 109.22094,18.799062 109.22094,18.799062 109,17 c 0.33,-0.33 0.66,-0.66 1,-1 z"
     fill="#b1ccdf"
     id="path48" />
  <path
     d="m 139,19 c 0.66,0.99 1.32,1.98 2,3 -1.32,2.64 -2.64,5.28 -4,8 -0.99,-0.33 -1.98,-0.66 -3,-1 0.66,0 1.32,0 2,0 -0.33,-0.99 -0.66,-1.98 -1,-3 1.375,-2 1.375,-2 3,-4 0.33,-0.99 0.66,-1.98 1,-3 z"
     fill="#b3d7eb"
     id="path49" />
  <path
     d="m 63,107 c 2.64,0 5.28,0 8,0 0.33,1.32 0.66,2.64 1,4 -5.538461,-0.61538 -5.538461,-0.61538 -7.875,-2.5625 C 63.75375,107.96313 63.3825,107.48875 63,107 Z"
     fill="#183d6f"
     id="path50" />
  <path
     d="m 144,71 c 2,0 2,0 4,1.875 0.66,0.70125 1.32,1.4025 2,2.125 0.66,0.66 1.32,1.32 2,2 -0.66,0 -1.32,0 -2,0 -0.33,0.66 -0.66,1.32 -1,2 -0.61875,-0.78375 -1.2375,-1.5675 -1.875,-2.375 C 145.10141,74.031623 145.10141,74.031623 143,72 c 0.33,-0.33 0.66,-0.66 1,-1 z"
     fill="#b3cbdd"
     id="path51" />
  <path
     d="m 150,46 c 2.97,0.33 5.94,0.66 9,1 0,0.33 0,0.66 0,1 -3.63,0.33 -7.26,0.66 -11,1 0.66,-0.99 1.32,-1.98 2,-3 z"
     fill="#d2e7f1"
     id="path52" />
  <path
     d="m 135,80 c 1.89213,2.385734 3.02392,4.071753 4,7 -0.33,0.66 -0.66,1.32 -1,2 -0.66,-0.33 -1.32,-0.66 -2,-1 -0.73076,-2.314062 -1.40138,-4.648289 -2,-7 0.33,-0.33 0.66,-0.66 1,-1 z"
     fill="#bddbeb"
     id="path53" />
  <path
     d="m 151,30 c 0.33,0.99 0.66,1.98 1,3 -2.3125,1.5625 -2.3125,1.5625 -5,3 -0.99,-0.33 -1.98,-0.66 -3,-1 1.39317,-2.786338 3.15981,-2.934927 6,-4 0.33,-0.33 0.66,-0.66 1,-1 z"
     fill="#b4cee0"
     id="path54" />
</svg>
